<?xml version="1.0" encoding="UTF-8"?>
<svg id="Layer_2" data-name="Layer 2" xmlns="http://www.w3.org/2000/svg" viewBox="0 0 31.35 19.36">
  <defs>
    <style>
      .cls-1 {
        fill: #010101;
      }
    </style>
  </defs>
  <g id="Layer_1-2" data-name="Layer 1">
    <g>
      <path class="cls-1" d="m11.05,14.28c-.51-1.05-.86-2.49-1.02-4.2-.21-2.36,1.21-4.61,2.62-5.29,1.37-.66,2.7-.29,2.98-.21,2.26.68,3.15,3.12,3.35,3.66,1.12,3.08-.88,7.6-.9,7.63l3.65.18c1.08-3.15,1.49-7.07.66-9.74-.89-2.87-2.59-4.78-5.1-5.74-2.09-.8-4.12-.75-6.08.14-1.96.89-3.31,2.31-4.05,4.26-1.39,3.63-1.32,6.75.21,9.36l3.68-.04Z"/>
      <path class="cls-1" d="m3.92,17.93c.3-1.17.92-2,1.86-2.5.87-.46,1.9-.53,3.09-.25l5.46,1.57h0s7.51,2.17,7.51,2.17c4.97,1.43,8.14-.55,9.5-5.92l-3.92-1.13c-.3,1.17-.92,2-1.86,2.5-.87.47-1.92.53-3.12.24l-13.12-3.78h0c-4.87-1.32-7.98.66-9.32,5.97l3.92,1.13Z"/>
    </g>
  </g>
</svg>