<?xml version="1.0" encoding="UTF-8"?>
<svg id="Layer_2" data-name="Layer 2" xmlns="http://www.w3.org/2000/svg" viewBox="0 0 201.25 38">
  <defs>
    <style>
      .cls-1 {
        fill: #010101;
      }
    </style>
  </defs>
  <g id="Layer_1-2" data-name="Layer 1">
    <g>
      <g>
        <path class="cls-1" d="m98.75,26.44h11.64v3.33h-17.48v-.98l11.93-16.67h-11.74v-3.33h17.16v1.06l-11.52,16.6Z"/>
        <path class="cls-1" d="m111.45,19.23c0-3.24.87-5.86,2.62-7.85s4.04-2.99,6.89-2.99c3,0,5.34.96,7,2.87s2.49,4.57,2.49,7.97-.85,6.05-2.55,8c-1.7,1.95-4.01,2.93-6.94,2.93s-5.32-.99-7-2.96-2.51-4.63-2.51-7.97Zm3.92,0c0,5.26,1.86,7.9,5.58,7.9,1.74,0,3.1-.71,4.09-2.12s1.48-3.34,1.48-5.78c0-5.2-1.85-7.8-5.56-7.8-1.7,0-3.05.69-4.07,2.08s-1.52,3.29-1.52,5.72Z"/>
        <path class="cls-1" d="m132.58,35.51l2.02-2.98c2.17,1.45,4.17,2.17,6,2.17,1.69,0,3.01-.29,3.99-.87s1.46-1.3,1.46-2.17c0-1.7-1.23-2.55-3.68-2.55-.42,0-1.18.1-2.27.31s-1.95.31-2.57.31c-2.98,0-4.47-1.12-4.47-3.37,0-.69.35-1.32,1.05-1.88s1.56-.97,2.6-1.21c-2.95-1.38-4.43-3.79-4.43-7.21,0-2.19.76-4.02,2.29-5.49s3.42-2.19,5.66-2.19c2.06,0,3.68.42,4.84,1.27l1.86-2.23,2.43,2.29-2.23,1.69c.95,1.24,1.43,2.86,1.43,4.86,0,2.12-.66,3.89-1.98,5.33-1.32,1.44-3.05,2.26-5.19,2.47l-3.08.31c-.37.04-.86.18-1.47.42s-.92.56-.92.95c0,.54.64.8,1.92.8.56,0,1.44-.1,2.63-.3s2.07-.3,2.65-.3c2.06,0,3.67.49,4.83,1.48s1.73,2.35,1.73,4.11c0,1.93-.87,3.49-2.6,4.68s-3.92,1.78-6.57,1.78c-1.36,0-2.79-.24-4.29-.72s-2.71-1.07-3.62-1.76Zm7.9-24.12c-1.29,0-2.35.46-3.16,1.37s-1.22,2.02-1.22,3.33c0,1.46.4,2.67,1.19,3.63s1.86,1.44,3.2,1.44,2.35-.47,3.1-1.4,1.12-2.16,1.12-3.67c0-1.31-.4-2.42-1.21-3.33s-1.81-1.37-3.01-1.37Z"/>
        <path class="cls-1" d="m174.37,29.77V11.92h-2.88v-3.14h6.6v20.99h-3.72Zm2.04-28.92c.64,0,1.19.23,1.64.68s.68.99.68,1.62-.23,1.19-.68,1.64-1,.68-1.64.68-1.17-.23-1.62-.68-.68-1-.68-1.64.22-1.18.67-1.63.99-.67,1.63-.67Z"/>
        <path class="cls-1" d="m186.18,28.26l-1.31,1.9h-1.86V.19h3.72v10.15c.35-.48,1.02-.93,1.99-1.33s1.93-.61,2.87-.61c2.87,0,5.2.99,6.99,2.98s2.67,4.49,2.67,7.52c0,3.5-.89,6.25-2.68,8.26s-4.21,3.01-7.27,3.01c-.99,0-1.97-.19-2.93-.56s-1.69-.82-2.18-1.34Zm.55-15.09v12.11c0,.21.46.55,1.39,1.03s1.63.72,2.12.72c2.53,0,4.35-.61,5.45-1.82s1.65-3.25,1.65-6.11c0-2.38-.64-4.23-1.92-5.56s-3-2-5.17-2c-.46,0-1.09.2-1.91.59s-1.35.74-1.6,1.06Z"/>
        <g>
          <path class="cls-1" d="m164.6,22.85c-.5.86-1.37,1.79-2.51,2.7-1.58,1.27-3.85,1.31-5,.63-1.11-.66-1.48-1.78-1.56-2.02-.58-1.93.73-3.71,1.03-4.11,1.66-2.25,5.82-2.95,5.85-2.96l-1.59-2.68c-2.75.72-5.73,2.27-7.24,4.12-1.62,1.98-2.18,4.09-1.68,6.33.42,1.87,1.4,3.28,2.96,4.25,1.56.97,3.2,1.26,4.94.87,3.24-.72,5.42-2.24,6.55-4.56l-1.76-2.59Z"/>
          <path class="cls-1" d="m170.55,26.2c-.97.34-1.85.29-2.65-.14-.74-.4-1.28-1.1-1.63-2.08l-1.46-4.62h0s-2-6.36-2-6.36c-1.33-4.2-4.22-5.52-8.69-3.96l1.05,3.32c.97-.34,1.85-.29,2.65.14.74.4,1.28,1.11,1.64,2.1l3.5,11.11h0c1.35,4.08,4.23,5.36,8.63,3.81l-1.05-3.32Z"/>
        </g>
      </g>
      <path class="cls-1" d="m3.17,28.08l-1.31,1.9H0V0h3.72v10.15c.35-.48,1.02-.93,1.99-1.33s1.93-.61,2.87-.61c2.87,0,5.2.99,6.99,2.98s2.67,4.49,2.67,7.52c0,3.5-.89,6.25-2.68,8.26s-4.21,3.01-7.27,3.01c-.99,0-1.97-.19-2.93-.56s-1.69-.82-2.18-1.34Zm.55-15.09v12.11c0,.21.46.55,1.39,1.03s1.63.72,2.12.72c2.53,0,4.35-.61,5.45-1.82s1.65-3.25,1.65-6.11c0-2.38-.64-4.23-1.92-5.56s-3-2-5.17-2c-.46,0-1.09.2-1.91.59s-1.35.74-1.6,1.06Z"/>
      <path class="cls-1" d="m39.03,19.46h-15.13c0,2.46.67,4.34,2.02,5.66,1.19,1.15,2.72,1.72,4.59,1.72,2.13,0,3.91-.62,5.33-1.86l1.57,2.68c-.57.57-1.46,1.07-2.65,1.49-1.49.55-3.15.82-4.98.82-2.64,0-4.88-.89-6.72-2.68-2.05-1.97-3.08-4.62-3.08-7.96s1.05-6.24,3.15-8.33c1.88-1.87,4.11-2.8,6.68-2.8,2.99,0,5.34.84,7.03,2.53,1.65,1.62,2.47,3.77,2.47,6.45,0,.82-.1,1.58-.29,2.27Zm-9.03-8.11c-1.66,0-3.05.54-4.17,1.61-1.07,1.02-1.68,2.29-1.82,3.8h11.62c0-1.5-.47-2.76-1.41-3.76-1.03-1.1-2.44-1.65-4.21-1.65Z"/>
      <path class="cls-1" d="m42.53,23.65V0h3.72v23.02c0,1.12.32,2.01.97,2.66s1.49.97,2.54.97v3.33c-4.82,0-7.23-2.11-7.23-6.33Z"/>
      <path class="cls-1" d="m53.36,23.65V0h3.72v23.02c0,1.12.32,2.01.97,2.66s1.49.97,2.54.97v3.33c-4.82,0-7.23-2.11-7.23-6.33Z"/>
      <g>
        <path class="cls-1" d="m75.6,23.07c-.5.86-1.37,1.79-2.51,2.7-1.58,1.27-3.85,1.31-5,.63-1.11-.66-1.48-1.78-1.56-2.02-.58-1.93.73-3.71,1.03-4.11,1.66-2.25,5.82-2.95,5.85-2.96l-1.59-2.68c-2.75.72-5.73,2.27-7.24,4.12-1.62,1.98-2.18,4.09-1.68,6.33.42,1.87,1.4,3.28,2.96,4.25,1.56.97,3.2,1.26,4.94.87,3.24-.72,5.42-2.24,6.55-4.56l-1.76-2.59Z"/>
        <path class="cls-1" d="m81.55,26.42c-.97.34-1.85.29-2.65-.14-.74-.4-1.28-1.1-1.63-2.08l-1.46-4.62h0s-2-6.36-2-6.36c-1.33-4.2-4.22-5.52-8.69-3.96l1.05,3.32c.97-.34,1.85-.29,2.65.14.74.4,1.28,1.11,1.64,2.1l3.5,11.11h0c1.35,4.08,4.23,5.36,8.63,3.81l-1.05-3.32Z"/>
      </g>
    </g>
  </g>
</svg>